<?xml version="1.0" encoding="UTF-8" standalone="no"?>
<!DOCTYPE svg PUBLIC "-//W3C//DTD SVG 1.1//EN" "http://www.w3.org/Graphics/SVG/1.1/DTD/svg11.dtd">
<svg version="1.1" xmlns="http://www.w3.org/2000/svg" xmlns:xlink="http://www.w3.org/1999/xlink" preserveAspectRatio="xMidYMid meet" viewBox="0 0 640 640" width="56" height="56"><defs><path d="" id="anCrZWL5K"></path><path d="M294.94 174.54C304.81 129.63 294.2 92.62 263.11 63.5C198.16 129.63 165.43 162.48 164.94 162.05C196.52 194.68 239.21 200.91 293 180.74L418.84 302.88L328.53 397.63C427.72 473.14 509.65 494.6 574.29 462.03C618.71 387.02 598.97 304.3 515.07 213.87L447.71 280.49" id="aVaAxT65l"></path><path d="M154.79 151.05L185.43 180.71" id="a2bGWnuQAG"></path><path d="M557.62 79.76L316.04 287.68" id="bcDkcJDhj"></path><path d="" id="j8DJdSRWr"></path><path d="M326 317.29L289.37 275.71" id="b9U2201CO"></path><path d="M306 334.29L269.37 292.71" id="k2NswwEX7"></path><path d="M217.03 564.69L240.79 544.89L301.19 302.31" id="aQ04Anmi"></path><path d="M141.78 526.08L168.51 503.3L301.19 296.5" id="c8HaZcO9"></path><path d="M306 296.5L91.29 480.53" id="b1f4d8VU3"></path><path d="M296.24 302.31L69.5 394.39L46.73 414.2" id="cyvof3HCT"></path><path d="M289.37 302.31L46.73 324.1L26.93 342.91" id="b7uxQEfGK"></path><path d="M269.37 452.81C210.53 447.53 169.32 397.36 145.74 302.31" id="b2LehEWhmH"></path></defs><g><g><g><g><use xlink:href="#anCrZWL5K" opacity="1" fill-opacity="0" stroke="#ffffff" stroke-width="30" stroke-opacity="1"></use></g></g><g><g><use xlink:href="#aVaAxT65l" opacity="1" fill-opacity="0" stroke="#ffffff" stroke-width="30" stroke-opacity="1"></use></g></g><g><g><use xlink:href="#a2bGWnuQAG" opacity="1" fill-opacity="0" stroke="#ffffff" stroke-width="30" stroke-opacity="1"></use></g></g><g><g><use xlink:href="#bcDkcJDhj" opacity="1" fill-opacity="0" stroke="#ffffff" stroke-width="30" stroke-opacity="1"></use></g></g><g><g><use xlink:href="#j8DJdSRWr" opacity="1" fill-opacity="0" stroke="#ffffff" stroke-width="30" stroke-opacity="1"></use></g></g><g><g><use xlink:href="#b9U2201CO" opacity="1" fill-opacity="0" stroke="#ffffff" stroke-width="30" stroke-opacity="1"></use></g></g><g><g><use xlink:href="#k2NswwEX7" opacity="1" fill-opacity="0" stroke="#ffffff" stroke-width="30" stroke-opacity="1"></use></g></g><g><g><use xlink:href="#aQ04Anmi" opacity="1" fill-opacity="0" stroke="#ffffff" stroke-width="30" stroke-opacity="1"></use></g></g><g><g><use xlink:href="#c8HaZcO9" opacity="1" fill-opacity="0" stroke="#ffffff" stroke-width="30" stroke-opacity="1"></use></g></g><g><g><use xlink:href="#b1f4d8VU3" opacity="1" fill-opacity="0" stroke="#ffffff" stroke-width="30" stroke-opacity="1"></use></g></g><g><g><use xlink:href="#cyvof3HCT" opacity="1" fill-opacity="0" stroke="#ffffff" stroke-width="30" stroke-opacity="1"></use></g></g><g><g><use xlink:href="#b7uxQEfGK" opacity="1" fill-opacity="0" stroke="#ffffff" stroke-width="30" stroke-opacity="1"></use></g></g><g><g><use xlink:href="#b2LehEWhmH" opacity="1" fill-opacity="0" stroke="#ffffff" stroke-width="30" stroke-opacity="1"></use></g></g></g></g></svg>