<?xml version="1.0" encoding="UTF-8" standalone="no"?>
<!DOCTYPE svg PUBLIC "-//W3C//DTD SVG 1.1//EN" "http://www.w3.org/Graphics/SVG/1.1/DTD/svg11.dtd">
<svg version="1.1" xmlns="http://www.w3.org/2000/svg" xmlns:xlink="http://www.w3.org/1999/xlink" preserveAspectRatio="xMidYMid meet" viewBox="0 0 640 640" width="56" height="56"><defs><path d="M164.93 543.17C164.93 578.69 136.09 607.52 100.57 607.52C65.05 607.52 36.21 578.69 36.21 543.17C36.21 507.65 65.05 478.81 100.57 478.81C136.09 478.81 164.93 507.65 164.93 543.17Z" id="aeLvR1OQi"></path><clipPath id="clipe28tnkEGh"><use xlink:href="#aeLvR1OQi" opacity="1"></use></clipPath><path d="M520.3 459.56C521.66 317.45 518.17 209.22 509.84 134.86C468.49 49.29 420.3 43.32 377.03 34.67C286.01 32.11 230.88 76.62 211.65 168.21L201.07 171.09C196.58 175.58 189.85 184.56 180.88 198.02C165.49 182.63 125.11 188.52 108.76 189.48C97.86 190.12 92.42 194.89 92.42 203.79L92.42 250.9C79.6 259.88 73.18 269.49 73.18 279.75C73.18 290 79.6 299.62 92.42 308.59L92.42 450.9" id="cINzTL3RD"></path><path d="M279.92 424.94C269.98 424.94 250.11 424.94 220.3 424.94L220.3 567.25" id="a52unkFdD"></path><path d="M279.92 506.67L263.57 506.67L263.57 551.86" id="brvn7a44o"></path><path d="M176.07 595.13C240.17 595.77 277.99 595.77 289.53 595.13C301.07 594.49 311.97 587.12 322.22 573.02C324.79 567.89 326.85 521.74 328.42 434.56C323.57 344.81 308.36 287.12 282.8 261.48L240.49 224.94L263.57 239.36L263.57 228.79L265.49 201.86L253.95 187.44L259.72 154.75C279.95 104.77 315.39 79.79 366.03 79.79C416.67 79.79 452.39 109.9 473.18 170.13L473.18 459.56" id="aeCsajrQH"></path><path d="M400.47 525.9L382.05 598.61L611.05 598.61L587.97 525.9L537.16 525.9L537.16 496.09L455.28 496.09L455.28 514.36" id="c37O95mhp"></path></defs><g><g><g><g clip-path="url(#clipe28tnkEGh)"><use xlink:href="#aeLvR1OQi" opacity="1" fill-opacity="0" stroke="#ffffff" stroke-width="30" stroke-opacity="1"></use></g></g><g><g><use xlink:href="#cINzTL3RD" opacity="1" fill-opacity="0" stroke="#ffffff" stroke-width="30" stroke-opacity="1"></use></g></g><g><g><use xlink:href="#a52unkFdD" opacity="1" fill-opacity="0" stroke="#ffffff" stroke-width="30" stroke-opacity="1"></use></g></g><g><g><use xlink:href="#brvn7a44o" opacity="1" fill-opacity="0" stroke="#ffffff" stroke-width="30" stroke-opacity="1"></use></g></g><g><g><use xlink:href="#aeCsajrQH" opacity="1" fill-opacity="0" stroke="#ffffff" stroke-width="30" stroke-opacity="1"></use></g></g><g><g><use xlink:href="#c37O95mhp" opacity="1" fill-opacity="0" stroke="#ffffff" stroke-width="30" stroke-opacity="1"></use></g></g></g></g></svg>