<?xml version="1.0" encoding="UTF-8" standalone="no"?>
<!DOCTYPE svg PUBLIC "-//W3C//DTD SVG 1.1//EN" "http://www.w3.org/Graphics/SVG/1.1/DTD/svg11.dtd">
<svg version="1.1" xmlns="http://www.w3.org/2000/svg" xmlns:xlink="http://www.w3.org/1999/xlink" preserveAspectRatio="xMidYMid meet" viewBox="0 0 640 640" width="56" height="56"><defs><path d="M472.92 564.59L146.19 564.59" id="cAiA7EnkV"></path><path d="M437.32 549.74L437.32 146.77L183.81 146.77L183.81 572.52" id="ahu60lkuU"></path><path d="M410.54 137.37L410.54 93.8L209.55 93.8L209.55 144.3" id="b2XM3Oxl7o"></path><path d="M259.06 428.51L222.42 428.51L222.42 476.03" id="bBD6sYNnM"></path><path d="M259.06 350.39L222.42 350.39L222.42 397.91" id="b4zv8nNktJ"></path><path d="M259.06 272.27L222.42 272.27L222.42 319.79" id="diQZlzGLS"></path><path d="M259.06 189.2L222.42 189.2L222.42 236.72" id="bjdIpdxU6"></path><path d="M333.41 428.51L296.78 428.51L296.78 476.03" id="b4cC5jj9F4"></path><path d="M333.41 350.39L296.78 350.39L296.78 397.91" id="e6bWEh5n7"></path><path d="M333.41 272.27L296.78 272.27L296.78 319.79" id="c2oV7AYjoJ"></path><path d="M333.41 189.2L296.78 189.2L296.78 236.72" id="cl2VV5WEH"></path><path d="M362.03 428.51L398.66 428.51L398.66 476.03" id="b6okTSEaA"></path><path d="M362.03 189.2L398.66 189.2L398.66 236.72" id="c9y0fgrz"></path><path d="M356.17 557.17L356.17 496.77L259.06 496.77L259.06 564.59" id="aAtw5gBcQ"></path><path d="M362.03 272.27L398.66 272.27L398.66 319.79" id="d2pLmHWHpb"></path><path d="M309.56 564.59L308.55 496.77" id="b4nmMWzaM"></path><path d="M362.03 350.39L398.66 350.39L398.66 397.91" id="f17FdC2ccG"></path><path d="M319 476.03L319 418.81" id="g7ncW647Z"></path><path d="M319 397.91L319 340.69" id="e1qishJoHc"></path><path d="M319 319.79L319 262.57" id="f2qJeK2dv"></path><path d="M319 236.72L319 179.5" id="b32I29QhNh"></path></defs><g><g><g><g><use xlink:href="#cAiA7EnkV" opacity="1" fill-opacity="0" stroke="#ffffff" stroke-width="30" stroke-opacity="1"></use></g></g><g><g><use xlink:href="#ahu60lkuU" opacity="1" fill-opacity="0" stroke="#ffffff" stroke-width="30" stroke-opacity="1"></use></g></g><g><g><use xlink:href="#b2XM3Oxl7o" opacity="1" fill-opacity="0" stroke="#ffffff" stroke-width="30" stroke-opacity="1"></use></g></g><g><g><use xlink:href="#bBD6sYNnM" opacity="1" fill-opacity="0" stroke="#ffffff" stroke-width="30" stroke-opacity="1"></use></g></g><g><g><use xlink:href="#b4zv8nNktJ" opacity="1" fill-opacity="0" stroke="#ffffff" stroke-width="30" stroke-opacity="1"></use></g></g><g><g><use xlink:href="#diQZlzGLS" opacity="1" fill-opacity="0" stroke="#ffffff" stroke-width="30" stroke-opacity="1"></use></g></g><g><g><use xlink:href="#bjdIpdxU6" opacity="1" fill-opacity="0" stroke="#ffffff" stroke-width="30" stroke-opacity="1"></use></g></g><g><g><use xlink:href="#b4cC5jj9F4" opacity="1" fill-opacity="0" stroke="#ffffff" stroke-width="30" stroke-opacity="1"></use></g></g><g><g><use xlink:href="#e6bWEh5n7" opacity="1" fill-opacity="0" stroke="#ffffff" stroke-width="30" stroke-opacity="1"></use></g></g><g><g><use xlink:href="#c2oV7AYjoJ" opacity="1" fill-opacity="0" stroke="#ffffff" stroke-width="30" stroke-opacity="1"></use></g></g><g><g><use xlink:href="#cl2VV5WEH" opacity="1" fill-opacity="0" stroke="#ffffff" stroke-width="30" stroke-opacity="1"></use></g></g><g><g><use xlink:href="#b6okTSEaA" opacity="1" fill-opacity="0" stroke="#ffffff" stroke-width="30" stroke-opacity="1"></use></g></g><g><g><use xlink:href="#c9y0fgrz" opacity="1" fill-opacity="0" stroke="#ffffff" stroke-width="30" stroke-opacity="1"></use></g></g><g><g><use xlink:href="#aAtw5gBcQ" opacity="1" fill-opacity="0" stroke="#ffffff" stroke-width="30" stroke-opacity="1"></use></g></g><g><g><use xlink:href="#d2pLmHWHpb" opacity="1" fill-opacity="0" stroke="#ffffff" stroke-width="30" stroke-opacity="1"></use></g></g><g><g><use xlink:href="#b4nmMWzaM" opacity="1" fill-opacity="0" stroke="#ffffff" stroke-width="30" stroke-opacity="1"></use></g></g><g><g><use xlink:href="#f17FdC2ccG" opacity="1" fill-opacity="0" stroke="#ffffff" stroke-width="30" stroke-opacity="1"></use></g></g><g><g><use xlink:href="#g7ncW647Z" opacity="1" fill-opacity="0" stroke="#ffffff" stroke-width="30" stroke-opacity="1"></use></g></g><g><g><use xlink:href="#e1qishJoHc" opacity="1" fill-opacity="0" stroke="#ffffff" stroke-width="30" stroke-opacity="1"></use></g></g><g><g><use xlink:href="#f2qJeK2dv" opacity="1" fill-opacity="0" stroke="#ffffff" stroke-width="30" stroke-opacity="1"></use></g></g><g><g><use xlink:href="#b32I29QhNh" opacity="1" fill-opacity="0" stroke="#ffffff" stroke-width="30" stroke-opacity="1"></use></g></g></g></g></svg>