<?xml version="1.0" encoding="UTF-8" standalone="no"?>
<!DOCTYPE svg PUBLIC "-//W3C//DTD SVG 1.1//EN" "http://www.w3.org/Graphics/SVG/1.1/DTD/svg11.dtd">
<svg version="1.1" xmlns="http://www.w3.org/2000/svg" xmlns:xlink="http://www.w3.org/1999/xlink" preserveAspectRatio="xMidYMid meet" viewBox="0 0 640 640" width="56" height="56"><defs><path d="M200.06 193.81L200.06 80.94L509.03 80.94L509.03 413.61C507.71 434.73 500.78 445.95 488.23 447.27C475.69 448.59 468.43 439.35 466.45 419.55L466.45 239.35C469.09 210.31 463.15 195.13 448.63 193.81C434.11 192.49 426.52 202.06 425.86 222.52L425.86 550.24L123.88 550.24" id="c8BTJt5Uuq"></path><path d="M347.64 300.74L343.68 471.03L193.18 471.03L196.15 300.74" id="d3SxVu04js"></path><path d="M440.71 193.83C298.47 193.14 211 193.14 178.28 193.83C145.57 194.51 127.43 205.14 123.88 225.71L123.88 564.1" id="aBs7PCZcA"></path><path d="M435.76 177.96L435.76 152.22L276.35 152.22" id="cg951XdyU"></path><path d="M376.21 553.16L399.62 585.08L423.82 543.13" id="e1lluNnYFt"></path><path d="M316 553.16L339.4 585.08L363.61 543.13" id="b1AXxH894K"></path><path d="M254.49 553.16L277.89 585.08L302.1 543.13" id="cpOVvISNG"></path><path d="M196.37 553.16L219.78 585.08L243.99 543.13" id="c1WkMBfE0R"></path><path d="M135.88 553.16L159.29 585.08L183.5 543.13" id="a7UA3Vo6F"></path><path d="M452.41 78.49L475.82 46.57L500.03 88.52" id="h4MNSSna01"></path><path d="M392.2 78.49L415.61 46.57L439.82 88.52" id="a2VRJc8zDQ"></path><path d="M330.69 78.49L354.09 46.57L378.3 88.52" id="b6eWmytXc"></path><path d="M272.58 78.49L295.98 46.57L320.19 88.52" id="d4kQL5tcsc"></path><path d="M212.09 78.49L235.49 46.57L259.7 88.52" id="cf5C1C3Kg"></path></defs><g><g><g><g><use xlink:href="#c8BTJt5Uuq" opacity="1" fill-opacity="0" stroke="#ffffff" stroke-width="30" stroke-opacity="1"></use></g></g><g><g><use xlink:href="#d3SxVu04js" opacity="1" fill-opacity="0" stroke="#ffffff" stroke-width="30" stroke-opacity="1"></use></g></g><g><g><use xlink:href="#aBs7PCZcA" opacity="1" fill-opacity="0" stroke="#ffffff" stroke-width="30" stroke-opacity="1"></use></g></g><g><g><use xlink:href="#cg951XdyU" opacity="1" fill-opacity="0" stroke="#ffffff" stroke-width="30" stroke-opacity="1"></use></g></g><g><g><use xlink:href="#e1lluNnYFt" opacity="1" fill-opacity="0" stroke="#ffffff" stroke-width="30" stroke-opacity="1"></use></g></g><g><g><use xlink:href="#b1AXxH894K" opacity="1" fill-opacity="0" stroke="#ffffff" stroke-width="30" stroke-opacity="1"></use></g></g><g><g><use xlink:href="#cpOVvISNG" opacity="1" fill-opacity="0" stroke="#ffffff" stroke-width="30" stroke-opacity="1"></use></g></g><g><g><use xlink:href="#c1WkMBfE0R" opacity="1" fill-opacity="0" stroke="#ffffff" stroke-width="30" stroke-opacity="1"></use></g></g><g><g><use xlink:href="#a7UA3Vo6F" opacity="1" fill-opacity="0" stroke="#ffffff" stroke-width="30" stroke-opacity="1"></use></g></g><g><g><use xlink:href="#h4MNSSna01" opacity="1" fill-opacity="0" stroke="#ffffff" stroke-width="30" stroke-opacity="1"></use></g></g><g><g><use xlink:href="#a2VRJc8zDQ" opacity="1" fill-opacity="0" stroke="#ffffff" stroke-width="30" stroke-opacity="1"></use></g></g><g><g><use xlink:href="#b6eWmytXc" opacity="1" fill-opacity="0" stroke="#ffffff" stroke-width="30" stroke-opacity="1"></use></g></g><g><g><use xlink:href="#d4kQL5tcsc" opacity="1" fill-opacity="0" stroke="#ffffff" stroke-width="30" stroke-opacity="1"></use></g></g><g><g><use xlink:href="#cf5C1C3Kg" opacity="1" fill-opacity="0" stroke="#ffffff" stroke-width="30" stroke-opacity="1"></use></g></g></g></g></svg>